<svg width="16" height="16" viewBox="0 0 16 16" fill="none" xmlns="http://www.w3.org/2000/svg">
<path d="M5.04338 7.12931C4.90513 7.12931 4.76998 7.17036 4.65503 7.24728C4.54008 7.32419 4.45048 7.43351 4.39758 7.56141C4.34467 7.68932 4.33083 7.83006 4.3578 7.96584C4.38477 8.10162 4.45134 8.22634 4.5491 8.32423C4.64686 8.42212 4.77141 8.48879 4.90701 8.5158C5.04261 8.54281 5.18316 8.52895 5.31088 8.47597C5.43861 8.42299 5.54778 8.33327 5.62459 8.21816C5.7014 8.10305 5.7424 7.96772 5.7424 7.82928C5.7424 7.64364 5.66875 7.4656 5.53766 7.33433C5.40657 7.20306 5.22877 7.12931 5.04338 7.12931ZM7.83944 7.12931C7.70119 7.12931 7.56604 7.17036 7.45109 7.24728C7.33614 7.32419 7.24654 7.43351 7.19364 7.56141C7.14073 7.68932 7.12689 7.83006 7.15386 7.96584C7.18083 8.10162 7.2474 8.22634 7.34516 8.32423C7.44292 8.42212 7.56747 8.48879 7.70307 8.5158C7.83867 8.54281 7.97921 8.52895 8.10694 8.47597C8.23467 8.42299 8.34384 8.33327 8.42065 8.21816C8.49746 8.10305 8.53846 7.96772 8.53846 7.82928C8.53846 7.64364 8.46481 7.4656 8.33372 7.33433C8.20263 7.20306 8.02483 7.12931 7.83944 7.12931ZM10.6355 7.12931C10.4972 7.12931 10.3621 7.17036 10.2471 7.24728C10.1322 7.32419 10.0426 7.43351 9.9897 7.56141C9.93679 7.68932 9.92295 7.83006 9.94992 7.96584C9.97689 8.10162 10.0435 8.22634 10.1412 8.32423C10.239 8.42212 10.3635 8.48879 10.4991 8.5158C10.6347 8.54281 10.7753 8.52895 10.903 8.47597C11.0307 8.42299 11.1399 8.33327 11.2167 8.21816C11.2935 8.10305 11.3345 7.96772 11.3345 7.82928C11.3345 7.64364 11.2609 7.4656 11.1298 7.33433C10.9987 7.20306 10.8209 7.12931 10.6355 7.12931ZM7.83944 0.82959C6.92148 0.82959 6.01251 1.01064 5.16443 1.36241C4.31634 1.71418 3.54575 2.22977 2.89666 2.87975C1.58575 4.19245 0.849293 5.97285 0.849293 7.82928C0.843182 9.4456 1.40207 11.0131 2.42907 12.2601L1.03104 13.66C0.934043 13.7585 0.868338 13.8834 0.842213 14.0192C0.816088 14.155 0.830713 14.2955 0.884243 14.423C0.942302 14.5489 1.03642 14.6548 1.15465 14.727C1.27289 14.7993 1.4099 14.8348 1.54831 14.829H7.83944C9.69334 14.829 11.4713 14.0915 12.7822 12.7788C14.0931 11.4661 14.8296 9.68571 14.8296 7.82928C14.8296 5.97285 14.0931 4.19245 12.7822 2.87975C11.4713 1.56705 9.69334 0.82959 7.83944 0.82959ZM7.83944 13.429H3.23293L3.88302 12.7781C3.94907 12.7132 4.00161 12.6359 4.03761 12.5506C4.0736 12.4653 4.09234 12.3737 4.09272 12.2811C4.0901 12.0965 4.01472 11.9203 3.88302 11.7911C2.96772 10.8756 2.39773 9.67058 2.27017 8.38141C2.14262 7.09225 2.46537 5.79867 3.18346 4.72108C3.90155 3.64349 4.97054 2.84855 6.2083 2.4717C7.44606 2.09485 8.77602 2.15939 9.97159 2.65435C11.1672 3.1493 12.1544 4.04404 12.765 5.18612C13.3757 6.3282 13.572 7.64697 13.3205 8.91774C13.069 10.1885 12.3853 11.3327 11.3859 12.1553C10.3865 12.9779 9.13315 13.428 7.83944 13.429Z" fill="#180001" fill-opacity="0.4"/>
</svg>
